<?xml version="1.0" encoding="utf-8"?>
<!-- Generator: Adobe Illustrator 23.0.1, SVG Export Plug-In . SVG Version: 6.00 Build 0)  -->
<svg version="1.1" id="Layer_1" xmlns="http://www.w3.org/2000/svg" xmlns:xlink="http://www.w3.org/1999/xlink" x="0px" y="0px"
	 viewBox="0 0 465 465" style="enable-background:new 0 0 465 465;" xml:space="preserve">
<style type="text/css">
	.st0{fill:#FFFFFF;}
	.st1{fill:#3C52A3;}
	.st2{fill-rule:evenodd;clip-rule:evenodd;fill:#3C52A3;}
	.st3{fill-rule:evenodd;clip-rule:evenodd;fill:#FFFFFF;}
	.st4{opacity:0.21;fill-rule:evenodd;clip-rule:evenodd;fill:#3C52A3;}
</style>
<g>
	<path class="st0" d="M422.69,443.13H42.39c-11.22,0-20.31-9.09-20.31-20.31V42.53c0-11.22,9.09-20.31,20.31-20.31h380.3
		c11.22,0,20.31,9.09,20.31,20.31v380.3C443,434.04,433.9,443.13,422.69,443.13z"/>
	<path class="st1" d="M374.68,465H90.4c-49.73,0-90.19-40.46-90.19-90.19V90.54c0-49.73,40.46-90.19,90.19-90.19h284.27
		c49.73,0,90.19,40.46,90.19,90.19v284.27C464.86,424.54,424.41,465,374.68,465z M90.4,44.09c-25.61,0-46.45,20.84-46.45,46.45
		v284.27c0,25.61,20.84,46.45,46.45,46.45h284.27c25.61,0,46.45-20.84,46.45-46.45V90.54c0-25.61-20.84-46.45-46.45-46.45H90.4z"/>
</g>
<path class="st2" d="M359.5,437.42c-17.09-98.1-18.55-148.31-18.51-171.13c0,0,0.01-10.73,0.01-16.28c0-24.91-9.5-47.68-25.21-65.23
	c12.06-19.76,43.38-76.02,21.63-94.8c-21.36-18.44-62.23,20.28-77.37,61.7c-1.99-17.19-12.56-23.86-12.56-23.86
	c2.39,7.76-3.67,16.67-8.08,21.86c-1.14-0.04-2.28-0.08-3.43-0.08c-0.07,0-0.15,0.01-0.22,0.01c-1.03-6.1-7.27-13.19-7.27-13.19
	c-0.24,7.05-3.94,11.53-7.45,14.21c-3.02,0.41-5.99,0.95-8.92,1.6c-14.98-41.63-56.12-80.77-77.58-62.25
	c-21.76,18.79,9.56,75.03,21.62,94.8c-15.71,17.55-25.21,40.32-25.21,65.23c0,4.07,0.02,12.78,0.02,12.78
	c0.41,20.51-0.84,69.87-19.09,174.63h66.16l7.66-24.79c0,0,47.38-51.89,99.27,0v0l7.75,24.79h66.51"/>
<g>
	<path class="st3" d="M242.78,256.74c26.1,0,56.43,6.31,60.12,30.04c5.19,33.3-28.15,74.39-62.89,74.2
		c-35.68-0.2-69.04-42.65-62.38-76.32C182.08,262.18,214.44,256.74,242.78,256.74z"/>
	<path class="st4" d="M240.11,285.05c14.02,0,25.38,14.92,25.38,33.32s-11.36,33.32-25.38,33.32s-25.38-14.92-25.38-33.32
		c0-9.81,3.23-18.63,8.37-24.73C227.6,288.3,233.56,285.05,240.11,285.05z"/>
	<path class="st2" d="M240.11,294.68c-1.66-0.89-6.08-3.48-9.39-0.92c-3.74,2.88-4.67,7.4-0.86,9.11c3.81,1.71,5.29-1.01,7.39,1.01
		c2.1,2.02,1.95,24.6,1.4,26c-0.54,1.4-1.75,3.93-5.49,4.09c-3.74,0.16-11.05-2.72-10.35-5.14c0.7-2.41,1.63-1.79,1.63-1.79
		s-0.23-0.82-1.48-0.04c-1.25,0.78-1.32,1.95-0.97,3.58c0.35,1.63,9.11,5.14,11.13,5.25c2.02,0.12,3.78-0.62,5.25-1.91
		c0.93-0.81,1.46-1.48,1.73-1.86c0.26,0.39,0.79,1.06,1.73,1.86c1.48,1.28,3.23,2.02,5.25,1.91c2.02-0.12,10.78-3.62,11.13-5.25
		c0.35-1.64,0.27-2.8-0.97-3.58c-1.25-0.78-1.48,0.04-1.48,0.04s0.93-0.62,1.63,1.79c0.7,2.41-6.62,5.29-10.35,5.14
		c-3.74-0.16-4.94-2.69-5.49-4.09c-0.54-1.4-0.7-23.98,1.4-26c2.1-2.02,3.58,0.7,7.39-1.01c3.81-1.71,2.88-6.23-0.86-9.11
		C246.18,291.2,241.77,293.79,240.11,294.68z"/>
	<g>
		<g>
			<ellipse class="st0" cx="174.5" cy="225.77" rx="15.93" ry="12.44"/>
			<circle class="st1" cx="174.5" cy="230.27" r="8.36"/>
		</g>
		<g>
			<ellipse class="st0" cx="297.49" cy="225.57" rx="15.93" ry="12.44"/>
			<circle class="st1" cx="297.49" cy="230.07" r="8.36"/>
		</g>
	</g>
</g>
<path class="st3" d="M200.52,155.34c-0.13-0.24-0.21-0.38-0.21-0.38c-16.29-43.44-51.88-63.95-59.73-52.49
	c-6.9,10.08,17.48,61.71,23.44,73.98C174.43,167.22,186.82,159.97,200.52,155.34z"/>
<path class="st3" d="M307.78,176.82c5.62-11.54,30.59-64.15,23.62-74.34c-7.84-11.46-43.44,9.05-59.73,52.49c0,0-0.12,0.2-0.29,0.54
	C285.06,160.19,297.41,167.52,307.78,176.82z"/>
</svg>
